<svg xmlns="http://www.w3.org/2000/svg" width="27" height="27" viewBox="0 0 27 27">
    <g transform="translate(-1447 -12)">
        <circle id="Ellipse_1995" data-name="Ellipse 1995" cx="13.5" cy="13.5" r="13.5"
                transform="translate(1447 12)" fill="#ac3053"/>
        <path id="Tracé_15237" data-name="Tracé 15237"
              d="M12.2-3.242,9.7-4.311a1.326,1.326,0,0,0-1.554.38l-.7.851A7.575,7.575,0,0,1,4.709-5.8l.852-.7a1.335,1.335,0,0,0,.381-1.55L4.867-10.574a1.333,1.333,0,0,0-1.52-.767l-2.317.535A1.321,1.321,0,0,0,0-9.512,11.147,11.147,0,0,0,11.136,1.625,1.278,1.278,0,0,0,12.408.6l.535-2.319A1.288,1.288,0,0,0,12.2-3.242ZM11.779-2,11.243.323a.137.137,0,0,1-.107.083A9.928,9.928,0,0,1,1.219-9.512.106.106,0,0,1,1.3-9.618l2.319-.535a.1.1,0,0,1,.024,0,.113.113,0,0,1,.1.066l1.07,2.5a.111.111,0,0,1-.032.129L3.55-6.472a.61.61,0,0,0-.161.74A8.686,8.686,0,0,0,7.337-1.784a.617.617,0,0,0,.74-.161L9.093-3.186a.1.1,0,0,1,.125-.029l2.495,1.069A.165.165,0,0,1,11.779-2Z"
              transform="translate(1454 30)" fill="#fff"/>
    </g>
</svg>
