<svg xmlns="http://www.w3.org/2000/svg" xmlns:xlink="http://www.w3.org/1999/xlink" width="504" height="411" viewBox="0 0 504 411">
  <defs>
    <clipPath id="clip-path">
      <rect id="Rectangle_4552" data-name="Rectangle 4552" width="504" height="411" transform="translate(0 40)" fill="#dcf3f8"/>
    </clipPath>
    <clipPath id="clip-path-2">
      <rect id="Rectangle_4509" data-name="Rectangle 4509" width="375.495" height="376.012" fill="#effafc"/>
    </clipPath>
  </defs>
  <g id="Groupe_de_masques_26" data-name="Groupe de masques 26" transform="translate(0 -40)" clip-path="url(#clip-path)">
    <g id="Fleur" transform="matrix(0.943, 0.334, -0.334, 0.943, 117.516, 81.492)">
      <g id="Groupe_3235" data-name="Groupe 3235" clip-path="url(#clip-path-2)">
        <path id="Tracé_9394" data-name="Tracé 9394" d="M146.284,74.235c2.046,5.275,3.664,10.717,5.548,16.058.289.815.2,1.969,1.348,2.324a6.021,6.021,0,0,0,1.835-2.232c4.069-6.152,7.884-12.492,12.246-18.43,9.775-13.3,21.024-24.686,38-28.611A41.3,41.3,0,0,1,215.6,41.893,42.432,42.432,0,0,1,238.4,49.5c5.264,3.508,9.723,7.884,14.26,12.267A61.2,61.2,0,0,1,262.92,74.749c3.023,5.119,5.122,10.578,5.05,16.669-.075,6.4-2.539,9.862-8.622,11.973q-11.644,4.042-23.306,8.029-22.861,7.849-45.723,15.694c-6.662,2.3-13.294,4.689-19.927,7.07-3.157,1.133-3.144,1.167-2.126,4.249,1.324,3.994,2.478,8.033,3.979,11.982,2.668,7.027,4.934,14.206,7.411,21.306.969,2.782,1.021,2.767,3.838,1.8q16.8-5.776,33.6-11.556,24.225-8.318,48.45-16.634c4.541-1.567,9.2-2.831,13.512-5,19.145-9.625,29.429-25.119,30.535-46.564.733-14.207-3.322-27.247-10.22-39.479-8.4-14.892-20.141-26.736-33.869-36.741A87.453,87.453,0,0,0,225.325,1.007C223.244.722,221.041,1,219.065,0H207.518c-.324.538-.876.5-1.4.578-2.958.424-5.942.732-8.869,1.315a84.954,84.954,0,0,0-48.882,28.348c-4.308,4.957-7.455,10.662-11.1,16.046a1.776,1.776,0,0,0-.08,1.81c3.61,8.51,5.757,17.528,9.1,26.138" transform="translate(46.288 0)" fill="#effafc"/>
        <path id="Tracé_9395" data-name="Tracé 9395" d="M203.216,233.374c.157-1.718-.638-2.208-2.268-2.2-12.72.044-25.441.012-38.16.036-2.323,0-2.438.075-2.422,2.628a50.552,50.552,0,0,1-2.226,13.406,34.707,34.707,0,0,1-7.528,14.023,70.975,70.975,0,0,1-18.564,15.591c-14.6,8.128-29.259,9.016-43.961.216a76.579,76.579,0,0,1-12.3-9.11c-6.24-5.7-11.783-12.08-15.66-19.687-2.7-5.3-4.439-10.9-3.666-16.966a10.389,10.389,0,0,1,7.06-9c9.851-3.775,19.962-6.794,29.881-10.379,13.529-4.89,27.236-9.285,40.845-13.958,6.86-2.356,13.679-4.83,20.5-7.306,2.292-.832,2.258-.908,1.552-3.245-1.9-6.28-4.58-12.283-6.418-18.594-1.521-5.222-3.493-10.314-5.289-15.454-.935-2.673-.971-2.7-3.59-1.813-7.47,2.541-14.927,5.118-22.391,7.679-14.824,5.087-29.686,10.072-44.463,15.292-10.329,3.648-20.93,6.564-30.87,11.291-5.068,2.411-9.408,5.914-13.576,9.522-2.521,2.182-4.3,5.266-6.241,8.065-7.864,11.358-9.751,24.275-8.682,37.578a54.092,54.092,0,0,0,4.414,17.84c1.854,4.122,3.224,8.385,5.669,12.329A120.1,120.1,0,0,0,44.631,295.87c10.394,9.742,21.623,18.269,35.11,23.375a84.5,84.5,0,0,0,12.531,3.8,85.826,85.826,0,0,0,53.273-5.6,70.68,70.68,0,0,0,12.579-7c.223-.158.431-.314.644-.438l0-.013s38.56-22.1,44.446-76.616" transform="translate(4.898 51.038)" fill="#effafc"/>
        <path id="Tracé_9396" data-name="Tracé 9396" d="M313.638,171.683a83.709,83.709,0,0,0-32.091-32.418,9.028,9.028,0,0,0-8.156-.713c-13.221,4.553-26.369,9.325-39.715,13.516-.593.187-1.223.436-1.368,1.2a6.425,6.425,0,0,0,2.2,1.8c10.691,7.367,22.318,13.424,31.127,23.4,2.376,2.689,5.032,5.175,7.188,8.08a61.572,61.572,0,0,1,5.31,9.091c6.764,13.365,6.568,26.579-.772,39.541a77.839,77.839,0,0,1-22.414,24.811c-4.973,3.6-10.339,6.472-16.437,7.661-4.391.858-8.7.843-12.736-1.58a4.123,4.123,0,0,1-1.616-1.386,38.5,38.5,0,0,1-4.778-10.595c-.791-3.115-1.785-6.137-2.821-9.155-1.44-4.192-3.031-8.331-4.493-12.516-.694-1.989-1.22-4.038-1.855-6.05-1.785-5.654-4.18-11.1-5.957-16.739q-2.5-7.925-5.191-15.778c-.807-2.364-2.195-4.568-2.731-6.976-1.306-5.876-3.765-11.331-5.749-16.955-.926-2.627-1.041-2.631-3.715-1.722-8.073,2.747-16.13,5.545-24.206,8.287-4.028,1.369-8.094,2.633-12.278,4.453,2.637,5.824,3.877,11.87,6.1,17.6,2.719,7,4.95,14.19,7.388,21.3,2.507,7.311,5.043,14.61,7.5,21.935q2.687,8.012,5.346,16.031c1.729,5.221,3.683,10.386,5.531,15.579A54.552,54.552,0,0,0,200.2,298.871a50.154,50.154,0,0,0,19.773,9.5,65.158,65.158,0,0,0,31.051-.661,67.635,67.635,0,0,0,17.787-6.894c7.458-4.427,15.1-8.853,20.835-15.683,4.074-2.309,6.672-6.189,9.709-9.522a102.712,102.712,0,0,0,17.83-26.758,83.538,83.538,0,0,0,7.486-34.209,85.49,85.49,0,0,0-11.037-42.959" transform="translate(50.817 46.6)" fill="#effafc"/>
        <path id="Tracé_9397" data-name="Tracé 9397" d="M30.81,176.907a107.865,107.865,0,0,0,12.374,8.564,8.451,8.451,0,0,0,7.867.712c13.205-4.59,26.465-9.022,39.705-13.514a2.2,2.2,0,0,0,1.606-1.262,9.866,9.866,0,0,0-2.878-2.2c-6.391-4.284-12.907-8.393-19.183-12.839a75.706,75.706,0,0,1-21.776-23.241c-7.6-12.832-9.407-26.194-3.164-40.143a59.506,59.506,0,0,1,8.505-13.169c6.754-8.279,14.415-15.5,24.207-20.128a29.288,29.288,0,0,1,12.959-3.156c6.442.071,9.911,2.5,12.009,8.56Q107.522,78.04,111.962,91q3.827,11.14,7.641,22.286c2.4,7.028,4.752,14.072,7.193,21.087q3.578,10.281,7.3,20.513c.9,2.475.987,2.506,3.445,1.666q16.946-5.794,33.869-11.655c2.692-.931,2.618-.962,1.729-3.895-2.062-6.791-4.857-13.32-6.944-20.112-2.364-7.693-5.246-15.224-7.783-22.866-2.468-7.442-5.356-14.736-7.68-22.232-1.66-5.357-4.067-10.509-5.623-15.85a91.133,91.133,0,0,0-6.847-17.709A49.5,49.5,0,0,0,110.579,18.2c-18.825-6.7-36.924-3.453-54.064,5.425C42.2,31.034,30.587,41.926,20.591,54.589,5.65,73.515-1.818,94.7.377,118.991A90.163,90.163,0,0,0,4.126,137.8a69.766,69.766,0,0,0,5.443,12.744C15.12,160.6,21.9,169.584,30.81,176.907" transform="translate(0 4.942)" fill="#effafc"/>
      </g>
    </g>
  </g>
</svg>
